<svg width="75" height="75" viewBox="0 0 75 75" fill="none" xmlns="http://www.w3.org/2000/svg">
<g filter="url(#filter0_d_1258_24454)">
<path d="M55 10H20C14.4772 10 10 14.4772 10 20V55C10 60.5228 14.4772 65 20 65H55C60.5228 65 65 60.5228 65 55V20C65 14.4772 60.5228 10 55 10Z" fill="white"/>
<path d="M45.9553 17.02C45.8703 16.925 42.8078 17.0575 40.1428 19.95C37.4778 22.84 37.8878 26.155 37.9478 26.24C38.0078 26.325 41.7478 26.4575 44.1353 23.095C46.5228 19.7325 46.0403 17.1175 45.9553 17.02ZM54.2403 46.3525C54.1203 46.1125 48.4278 43.2675 48.9578 37.7975C49.4878 32.325 53.1453 30.825 53.2028 30.6625C53.2603 30.5 51.7103 28.6875 50.0678 27.77C48.8618 27.1231 47.5271 26.7525 46.1603 26.685C45.8903 26.6775 44.9528 26.4475 43.0253 26.975C41.7553 27.3225 38.8928 28.4475 38.1053 28.4925C37.3153 28.5375 34.9653 27.1875 32.4378 26.83C30.8203 26.5175 29.1053 27.1575 27.8778 27.65C26.6528 28.14 24.3228 29.535 22.6928 33.2425C21.0628 36.9475 21.9153 42.8175 22.5253 44.6425C23.1353 46.465 24.0878 49.4525 25.7078 51.6325C27.1478 54.0925 29.0578 55.8 29.8553 56.38C30.6528 56.96 32.9028 57.345 34.4628 56.5475C35.7178 55.7775 37.9828 55.335 38.8778 55.3675C39.7703 55.4 41.5303 55.7525 43.3328 56.715C44.7603 57.2075 46.1103 57.0025 47.4628 56.4525C48.8153 55.9 50.7728 53.805 53.0578 49.5575C53.9253 47.5825 54.3203 46.515 54.2403 46.3525Z" fill="black"/>
<path d="M45.9553 17.02C45.8703 16.925 42.8078 17.0575 40.1428 19.95C37.4778 22.84 37.8878 26.155 37.9478 26.24C38.0078 26.325 41.7478 26.4575 44.1353 23.095C46.5228 19.7325 46.0403 17.1175 45.9553 17.02ZM54.2403 46.3525C54.1203 46.1125 48.4278 43.2675 48.9578 37.7975C49.4878 32.325 53.1453 30.825 53.2028 30.6625C53.2603 30.5 51.7103 28.6875 50.0678 27.77C48.8618 27.1231 47.5271 26.7525 46.1603 26.685C45.8903 26.6775 44.9528 26.4475 43.0253 26.975C41.7553 27.3225 38.8928 28.4475 38.1053 28.4925C37.3153 28.5375 34.9653 27.1875 32.4378 26.83C30.8203 26.5175 29.1053 27.1575 27.8778 27.65C26.6528 28.14 24.3228 29.535 22.6928 33.2425C21.0628 36.9475 21.9153 42.8175 22.5253 44.6425C23.1353 46.465 24.0878 49.4525 25.7078 51.6325C27.1478 54.0925 29.0578 55.8 29.8553 56.38C30.6528 56.96 32.9028 57.345 34.4628 56.5475C35.7178 55.7775 37.9828 55.335 38.8778 55.3675C39.7703 55.4 41.5303 55.7525 43.3328 56.715C44.7603 57.2075 46.1103 57.0025 47.4628 56.4525C48.8153 55.9 50.7728 53.805 53.0578 49.5575C53.9253 47.5825 54.3203 46.515 54.2403 46.3525Z" fill="black"/>
</g>
<defs>
<filter id="filter0_d_1258_24454" x="0" y="0" width="75" height="75" filterUnits="userSpaceOnUse" color-interpolation-filters="sRGB">
<feFlood flood-opacity="0" result="BackgroundImageFix"/>
<feColorMatrix in="SourceAlpha" type="matrix" values="0 0 0 0 0 0 0 0 0 0 0 0 0 0 0 0 0 0 127 0" result="hardAlpha"/>
<feOffset/>
<feGaussianBlur stdDeviation="5"/>
<feComposite in2="hardAlpha" operator="out"/>
<feColorMatrix type="matrix" values="0 0 0 0 0 0 0 0 0 0 0 0 0 0 0 0 0 0 0.15 0"/>
<feBlend mode="normal" in2="BackgroundImageFix" result="effect1_dropShadow_1258_24454"/>
<feBlend mode="normal" in="SourceGraphic" in2="effect1_dropShadow_1258_24454" result="shape"/>
</filter>
</defs>
</svg>
