<svg width="75" height="75" viewBox="0 0 75 75" fill="none" xmlns="http://www.w3.org/2000/svg">
<g filter="url(#filter0_d_1258_24463)">
<path d="M55 10H20C14.4772 10 10 14.4772 10 20V55C10 60.5228 14.4772 65 20 65H55C60.5228 65 65 60.5228 65 55V20C65 14.4772 60.5228 10 55 10Z" fill="white"/>
<path d="M56.9228 34.2203H55.3683V34.1403H37.9999V41.8596H48.9063C47.3152 46.3532 43.0396 49.5789 37.9999 49.5789C31.6054 49.5789 26.421 44.3944 26.421 37.9999C26.421 31.6054 31.6054 26.421 37.9999 26.421C40.9516 26.421 43.6369 27.5345 45.6816 29.3533L51.1401 23.8948C47.6934 20.6826 43.0831 18.7017 37.9999 18.7017C27.3425 18.7017 18.7017 27.3425 18.7017 37.9999C18.7017 48.6574 27.3425 57.2982 37.9999 57.2982C48.6574 57.2982 57.2982 48.6574 57.2982 37.9999C57.2982 36.706 57.165 35.4429 56.9228 34.2203Z" fill="#FFC107"/>
<path d="M20.9268 29.0175L27.2672 33.6675C28.9828 29.4199 33.1377 26.421 37.9999 26.421C40.9516 26.421 43.6369 27.5345 45.6816 29.3533L51.1401 23.8948C47.6934 20.6826 43.0831 18.7017 37.9999 18.7017C30.5875 18.7017 24.1592 22.8865 20.9268 29.0175Z" fill="#FF3D00"/>
<path d="M38.0001 57.2986C42.9848 57.2986 47.5141 55.391 50.9386 52.2888L44.9658 47.2346C43.0282 48.7022 40.6198 49.5793 38.0001 49.5793C32.9806 49.5793 28.7186 46.3787 27.113 41.9121L20.8198 46.7608C24.0137 53.0105 30.4998 57.2986 38.0001 57.2986Z" fill="#4CAF50"/>
<path d="M56.9229 34.2207H55.3684V34.1406H38V41.8599H48.9064C48.1422 44.0184 46.7537 45.8797 44.9628 47.2354C44.9638 47.2345 44.9647 47.2345 44.9657 47.2335L50.9385 52.2877C50.5159 52.6718 57.2982 47.6494 57.2982 38.0003C57.2982 36.7063 57.1651 35.4433 56.9229 34.2207Z" fill="#1976D2"/>
</g>
<defs>
<filter id="filter0_d_1258_24463" x="0" y="0" width="75" height="75" filterUnits="userSpaceOnUse" color-interpolation-filters="sRGB">
<feFlood flood-opacity="0" result="BackgroundImageFix"/>
<feColorMatrix in="SourceAlpha" type="matrix" values="0 0 0 0 0 0 0 0 0 0 0 0 0 0 0 0 0 0 127 0" result="hardAlpha"/>
<feOffset/>
<feGaussianBlur stdDeviation="5"/>
<feComposite in2="hardAlpha" operator="out"/>
<feColorMatrix type="matrix" values="0 0 0 0 0 0 0 0 0 0 0 0 0 0 0 0 0 0 0.15 0"/>
<feBlend mode="normal" in2="BackgroundImageFix" result="effect1_dropShadow_1258_24463"/>
<feBlend mode="normal" in="SourceGraphic" in2="effect1_dropShadow_1258_24463" result="shape"/>
</filter>
</defs>
</svg>
