<svg width="46" height="45" viewBox="0 0 46 45" fill="none" xmlns="http://www.w3.org/2000/svg">
<path d="M0 18.2242C0 16.3525 0.901255 14.5937 2.42499 13.4917L19.5276 1.12255C21.5971 -0.374183 24.4029 -0.374184 26.4724 1.12255L43.575 13.4917C45.0987 14.5937 46 16.3525 46 18.2242V39.0946C46 42.3283 43.3596 44.9496 40.1026 44.9496H5.89744C2.64037 44.9496 0 42.3283 0 39.0946V18.2242Z" fill="url(#paint0_linear_1258_26841)"/>
<path d="M35.2161 26.618C36.612 26.618 37.7436 25.4781 37.7436 24.072C37.7436 22.6658 36.612 21.5259 35.2161 21.5259C33.8202 21.5259 32.6887 22.6658 32.6887 24.072C32.6887 25.4781 33.8202 26.618 35.2161 26.618Z" fill="white"/>
<path d="M10.9524 26.618C12.3483 26.618 13.4799 25.4781 13.4799 24.072C13.4799 22.6658 12.3483 21.5259 10.9524 21.5259C9.55651 21.5259 8.42493 22.6658 8.42493 24.072C8.42493 25.4781 9.55651 26.618 10.9524 26.618Z" fill="white"/>
<path d="M28.4401 29.7578H17.9486C16.341 29.844 17.5255 32.2562 17.9486 33.0314C21.2483 37.856 26.5788 36.1329 28.4401 33.0314C29.9292 30.5504 29.0606 29.8152 28.4401 29.7578Z" fill="white"/>
<defs>
<linearGradient id="paint0_linear_1258_26841" x1="9.2674" y1="-1.72884" x2="38.7744" y2="45.568" gradientUnits="userSpaceOnUse">
<stop stop-color="#FFBD12"/>
<stop offset="1" stop-color="#FF6C19"/>
</linearGradient>
</defs>
</svg>
