<svg width="75" height="75" viewBox="0 0 75 75" fill="none" xmlns="http://www.w3.org/2000/svg">
<g filter="url(#filter0_d_1258_24469)">
<path d="M55 10H20C14.4772 10 10 14.4772 10 20V55C10 60.5228 14.4772 65 20 65H55C60.5228 65 65 60.5228 65 55V20C65 14.4772 60.5228 10 55 10Z" fill="white"/>
<path d="M37 57C48.0457 57 57 48.0457 57 37C57 25.9543 48.0457 17 37 17C25.9543 17 17 25.9543 17 37C17 48.0457 25.9543 57 37 57Z" fill="#FF9800"/>
<path d="M39.8972 43.4C41.3957 43.1 42.7943 42.5 43.9931 41.7C44.9922 41.1 45.2919 39.8 44.6924 38.8C44.093 37.8 42.7943 37.5 41.7953 38.1C38.8981 39.9 35.1019 39.9 32.2047 38.1C31.2057 37.5 29.907 37.8 29.3076 38.8C28.7081 39.8 29.0078 41.1 30.0069 41.7C31.3056 42.5 32.7042 43.1 34.1028 43.4L30.1068 47.4C29.3076 48.2 29.3076 49.5 30.1068 50.4C30.5064 50.8 31.0059 51 31.6053 51C32.1048 51 32.7042 50.8 33.1038 50.4L37 46.5L40.8962 50.4C41.6954 51.2 42.9941 51.2 43.8932 50.4C44.6924 49.6 44.6924 48.3 43.8932 47.4L39.8972 43.4ZM37 23C33.1038 23 30.0069 26.1 30.0069 30C30.0069 33.9 33.1038 37 37 37C40.8962 37 43.9931 33.9 43.9931 30C43.9931 26.1 40.8962 23 37 23ZM37 33C35.3017 33 34.0029 31.7 34.0029 30C34.0029 28.3 35.3017 27 37 27C38.6983 27 39.9971 28.3 39.9971 30C39.9971 31.7 38.6983 33 37 33Z" fill="white"/>
</g>
<defs>
<filter id="filter0_d_1258_24469" x="0" y="0" width="75" height="75" filterUnits="userSpaceOnUse" color-interpolation-filters="sRGB">
<feFlood flood-opacity="0" result="BackgroundImageFix"/>
<feColorMatrix in="SourceAlpha" type="matrix" values="0 0 0 0 0 0 0 0 0 0 0 0 0 0 0 0 0 0 127 0" result="hardAlpha"/>
<feOffset/>
<feGaussianBlur stdDeviation="5"/>
<feComposite in2="hardAlpha" operator="out"/>
<feColorMatrix type="matrix" values="0 0 0 0 0 0 0 0 0 0 0 0 0 0 0 0 0 0 0.15 0"/>
<feBlend mode="normal" in2="BackgroundImageFix" result="effect1_dropShadow_1258_24469"/>
<feBlend mode="normal" in="SourceGraphic" in2="effect1_dropShadow_1258_24469" result="shape"/>
</filter>
</defs>
</svg>
