<svg width="75" height="75" viewBox="0 0 75 75" fill="none" xmlns="http://www.w3.org/2000/svg">
<g filter="url(#filter0_d_1258_24459)">
<path d="M55 10H20C14.4772 10 10 14.4772 10 20V55C10 60.5228 14.4772 65 20 65H55C60.5228 65 65 60.5228 65 55V20C65 14.4772 60.5228 10 55 10Z" fill="white"/>
<path d="M38 18C32.6957 18 27.6086 20.1071 23.8579 23.8579C20.1071 27.6086 18 32.6957 18 38C18 43.3043 20.1071 48.3914 23.8579 52.1421C27.6086 55.8929 32.6957 58 38 58C43.3043 58 48.3914 55.8929 52.1421 52.1421C55.8929 48.3914 58 43.3043 58 38C58 32.6957 55.8929 27.6086 52.1421 23.8579C48.3914 20.1071 43.3043 18 38 18Z" fill="#1976D2"/>
<path d="M49.937 32.041C49.983 31.89 50.005 31.75 49.999 31.625C49.984 31.263 49.735 31 49.149 31H46.531C45.87 31 45.565 31.4 45.387 31.801C45.387 31.801 43.755 35.16 41.874 37.375C41.264 38.016 40.954 38 40.624 38C40.447 38 40 37.786 40 37.199V32.014C40 31.32 39.827 31 39.268 31H34.619C34.212 31 34 31.32 34 31.641C34 32.308 34.898 32.468 35 34.337V37.96C35 38.84 34.847 39 34.517 39C33.627 39 31.875 36 30.702 32.068C30.448 31.294 30.194 31 29.533 31H26.89C26.127 31 26 31.374 26 31.774C26 32.495 26.6 36.393 29.875 40.875C32.25 44.125 35.379 46 38.149 46C39.827 46 39.999 45.573 39.999 44.906V41.934C40 41.133 40.183 41 40.717 41C41.098 41 41.875 41.25 43.375 43C45.105 45.018 45.419 46 46.411 46H49.029C49.637 46 49.986 45.745 50 45.25C50.003 45.124 49.985 44.983 49.944 44.826C49.75 44.25 48.86 42.842 47.75 41.5C47.135 40.757 46.528 40.021 46.249 39.621C46.062 39.36 45.991 39.176 46 39C46.009 38.815 46.105 38.639 46.249 38.393C46.223 38.393 49.607 33.642 49.937 32.041Z" fill="white"/>
</g>
<defs>
<filter id="filter0_d_1258_24459" x="0" y="0" width="75" height="75" filterUnits="userSpaceOnUse" color-interpolation-filters="sRGB">
<feFlood flood-opacity="0" result="BackgroundImageFix"/>
<feColorMatrix in="SourceAlpha" type="matrix" values="0 0 0 0 0 0 0 0 0 0 0 0 0 0 0 0 0 0 127 0" result="hardAlpha"/>
<feOffset/>
<feGaussianBlur stdDeviation="5"/>
<feComposite in2="hardAlpha" operator="out"/>
<feColorMatrix type="matrix" values="0 0 0 0 0 0 0 0 0 0 0 0 0 0 0 0 0 0 0.15 0"/>
<feBlend mode="normal" in2="BackgroundImageFix" result="effect1_dropShadow_1258_24459"/>
<feBlend mode="normal" in="SourceGraphic" in2="effect1_dropShadow_1258_24459" result="shape"/>
</filter>
</defs>
</svg>
